<?xml version="1.0" encoding="UTF-8"?>
<!-- Created with Inkscape (http://www.inkscape.org/) -->
<svg width="210mm" height="297mm" version="1.1" viewBox="0 0 210 297" xmlns="http://www.w3.org/2000/svg">
 <g>
  <g transform="matrix(3.05 0 0 3.05 20.2 60)">
   <path d="m58 20.9c0.353-1.21 0.239-2.52-0.661-3.41-5.15-5.08-11.4-1.48-11.4 3.54 0 0.553-0.447 1-1 1s-1-0.447-1-1c0-4.06 3.05-7.42 6.98-7.93-0.226-5.04-4.38-9.07-9.48-9.07-5.11 0-9.28 4.06-9.48 9.12 0.829 0.196 1.63 0.52 2.38 0.981 1.82 1.12 3.09 2.89 3.58 4.97 0.126 0.538-0.207 1.08-0.744 1.2-0.564 0.127-1.13-0.239-1.22-0.822-0.25-1.6-1.02-3.11-2.49-3.79-5.7-2.63-10.3 2.01-9.18 6.62 0.126 0.537-0.207 1.08-0.745 1.2-0.076 0.018-0.153 0.026-0.229 0.026-0.453 0-0.864-0.311-0.973-0.771-0.294-1.25-0.268-2.5 0.012-3.67-2.06-0.301-4.14 0.476-5.49 2.12-1.26 1.53-1.62 3.5-1.18 5.28 1e-3 0.012 7e-3 0.022 8e-3 0.034 0.306 1.19 0.97 2.29 1.98 3.13 0.426 0.352 0.487 0.981 0.137 1.41-0.198 0.24-0.484 0.364-0.773 0.364-0.224 0-0.448-0.074-0.635-0.228-1.22-1-2.09-2.31-2.55-3.78-4.04-1.05-8.29 0.647-10.5 4.26-2.04 3.35-1.87 7.62 0.772 11.1 0.651 0.85 1.57 1.42 2.46 2.02 0.436 0.298 0.568 0.888 0.29 1.34-0.188 0.31-0.518 0.48-0.855 0.48-0.133 0-0.265-0.036-0.392-0.091 0.659 0.391 1.37 0.701 2.1 0.956 3.87-10.2 13.7-17.4 25.2-17.4 6.34 0 12.2 2.2 16.8 5.88 4.05 3.23 10.2 0.51 10.2-4.67v-0.131-6.13c0-1.54-0.958-2.73-1.99-3.86-0.049-0.052-0.066-0.122-0.039-0.213z" fill="#d0e8f9"/>
   <path d="m11 58c-0.015-0.332-0.025-0.665-0.025-1 0-12.1 9.87-22 22-22s22 9.87 22 22c0 0.335-0.01 0.668-0.025 1h4c0.013-0.332 0.025-0.665 0.025-1 0-14.4-11.6-26-26-26s-26 11.6-26 26c0 0.335 0.013 0.668 0.025 1z" fill="#e64c3c"/>
   <path d="m15.1 58c-0.018-0.333-0.051-0.662-0.051-1 0-9.92 8.08-18 18-18s18 8.08 18 18c0 0.338-0.032 0.667-0.051 1h4.02c0.015-0.332 0.025-0.665 0.025-1 0-12.1-9.87-22-22-22s-22 9.87-22 22c0 0.335 0.01 0.668 0.025 1z" fill="#f0c419"/>
   <path d="m19.1 58c-0.024-0.332-0.051-0.662-0.051-1 0-7.72 6.28-14 14-14s14 6.28 14 14c0 0.338-0.027 0.668-0.051 1h4c0.018-0.333 0.051-0.662 0.051-1 0-9.92-8.08-18-18-18s-18 8.08-18 18c0 0.338 0.032 0.667 0.051 1z" fill="#71c285"/>
   <path d="m23.1 58c-0.033-0.329-0.051-0.662-0.051-1 0-5.51 4.49-10 10-10s10 4.49 10 10c0 0.338-0.018 0.671-0.051 1h4c0.024-0.332 0.051-0.662 0.051-1 0-7.72-6.28-14-14-14s-14 6.28-14 14c0 0.338 0.027 0.668 0.051 1z" fill="#0096e6"/>
   <path d="m27.1 58c-0.055-0.326-0.09-0.659-0.09-1 0-3.31 2.69-6 6-6s6 2.69 6 6c0 0.341-0.035 0.674-0.09 1h4.04c0.033-0.329 0.051-0.662 0.051-1 0-5.51-4.49-10-10-10s-10 4.49-10 10c0 0.338 0.018 0.671 0.051 1z" fill="#546a79"/>
   <g fill="#abcadd">
    <path d="m52.9 13.1c-0.231-6.14-5.28-11.1-11.5-11.1-6.14 0-11.2 4.84-11.5 10.9-0.558 0.012-1.12 0.078-1.68 0.209-2.34 0.55-4.18 2.08-5.23 4.05-2.88-0.585-5.85 0.433-7.75 2.74-1.25 1.52-1.88 3.41-1.81 5.36-4.63-0.834-9.34 1.22-11.8 5.34-1.6 2.62-2.07 5.71-1.34 8.7s2.58 5.51 5.2 7.1c0.162 0.099 0.342 0.146 0.519 0.146 0.338 0 0.667-0.171 0.855-0.48 0.287-0.473 0.137-1.09-0.335-1.37-2.17-1.32-3.69-3.4-4.3-5.87-0.602-2.46-0.207-5.02 1.11-7.18 2.2-3.61 6.45-5.32 10.5-4.26 0.458 1.47 1.33 2.78 2.55 3.78 0.187 0.153 0.411 0.228 0.635 0.228 0.289 0 0.575-0.124 0.773-0.364 0.351-0.427 0.289-1.06-0.137-1.41-1.02-0.836-1.68-1.94-1.98-3.13-1e-3 -0.012-7e-3 -0.022-8e-3 -0.034-0.45-1.79-0.083-3.76 1.18-5.28 1.36-1.65 3.44-2.42 5.49-2.12-0.28 1.17-0.307 2.42-0.012 3.67 0.108 0.461 0.52 0.771 0.973 0.771 0.076 0 0.153-9e-3 0.229-0.026 0.538-0.127 0.871-0.665 0.745-1.2-0.758-3.22 1.25-6.46 4.47-7.22 3.22-0.759 6.46 1.24 7.21 4.47 0.127 0.537 0.665 0.865 1.2 0.744 0.537-0.127 0.87-0.665 0.744-1.2-0.49-2.08-1.76-3.84-3.58-4.97-0.746-0.462-1.55-0.785-2.38-0.981 0.2-5.06 4.37-9.12 9.48-9.12 5.09 0 9.25 4.03 9.48 9.07-3.93 0.504-6.98 3.86-6.98 7.93 0 0.553 0.447 1 1 1s1-0.447 1-1c0-3.31 2.69-6 6-6s6.05 2.69 6.05 6v3c0 0.552 0.448 1 1 1s1-0.448 1-1v-3c-2e-3 -4.08-3.12-7.45-7.07-7.93z"/>
    <path d="m59 30c-0.552 0-1 0.448-1 1v0.5c0 2.48-2.02 4.5-4.5 4.5s-4.5-2.02-4.5-4.5c0-0.553-0.448-1-1-1s-1 0.447-1 1c0 3.58 2.92 6.5 6.5 6.5 3.42 0 6.24-2.65 6.5-6v-1c0-0.553-0.447-1-1-1z"/>
   </g>
  </g>
 </g>
 <g display="none">
  <g transform="matrix(1.33 0 0 1.33 82.1 160)">
   <path d="m57.9 26.6-28.7-26.6-28.7 26.6c-0.404 0.376-0.428 1.01-0.052 1.41 0.374 0.404 1.01 0.427 1.41 0.052l4.32-4.01v34.3h46v-34.3l4.32 4.01c0.192 0.179 0.437 0.267 0.681 0.267 0.269 0 0.536-0.107 0.732-0.319 0.377-0.405 0.353-1.04-0.051-1.41zm-31.7 25.7h-12v-12h12zm0-18h-12v-12h12zm18 18h-12v-12h12zm0-18h-12v-12h12z"/>
  </g>
  <g transform="matrix(.213 0 0 .213 76.7 155)">
   <path d="m78.3 144v217h80.2v-129c0-6.63 5.37-12 12-12h73.8c6.63 0 12 5.37 12 12v129h80.2v-217l-129-88.4z" fill="none"/>
   <rect x="182" y="245" width="49.8" height="117" fill="#73d0f4"/>
   <polygon points="302 57.9 302 91.8 337 115 337 57.9" fill="#73d0f4"/>
   <path d="m410 165-49.1-33.6v-85.9c0-6.63-5.37-12-12-12h-58.4c-6.63 0-12 5.37-12 12v29.5s-63-43.2-63.8-43.7c-3.97-2.77-9.4-2.9-13.6 0l-195 134c-5.47 3.74-6.87 11.2-3.12 16.7 2.32 3.4 6.09 5.22 9.91 5.22 2.34 0 4.7-0.68 6.77-2.1l35.5-24.3v212c0 6.63 5.37 12 12 12h282c6.63 0 12-5.37 12-12v-212l35.5 24.3c2.07 1.42 4.43 2.1 6.77 2.1 3.83 0 7.59-1.83 9.91-5.22 3.74-5.47 2.34-12.9-3.12-16.7zm-177 196h-49.8v-117h49.8zm104 0h-80.2v-129c0-6.63-5.37-12-12-12h-73.8c-6.63 0-12 5.37-12 12v129h-80.2v-217l129-88.4 129 88.4v217zm0-246-34.4-23.6v-33.9h34.4z" fill="#3d6889"/>
  </g>
 </g>
 <g>
  <g transform="matrix(.161 0 0 .161 83.7 163)">
   <path d="m225 18-212 167 7.87 22.4h12.6l6.29 235h132l4.72-108 99.1-1.49 11 106 135 2.99v-236l36.2-10.5z" fill="#fff" fill-rule="evenodd" stroke="#000" stroke-width="1.68px"/>
   <path d="m53.7 46.4 4.48 94.1 77.7-55.3-7.47-41.8z" fill="#fff" fill-rule="evenodd"/>
   <g transform="matrix(1.05 0 0 1 -12.2 0)" fill="#800080" stroke="#800080">
    <path d="m444 167-195-160c-5.54-4.55-12.3-6.83-19.1-6.83s-13.5 2.28-19.1 6.83l-59.4 48.9v-9.36c0-8.28-6.72-15-15-15h-72c-8.28 0-15 6.72-15 15v93.2l-33.8 27.8c-9.78 8.05-13.5 21.4-9.18 33.3 3.71 10.4 12.7 17.7 23.3 19.5v210c0 16.6 13.4 30 30 30h103c16.6 0 30-13.4 30-30v-76.5c0-5.32 2.3-8.48 3.37-9.3h66.4c1.07 0.811 3.37 3.98 3.37 9.3v76.5c0 16.6 13.4 30 30 30h103c16.6 0 30-13.4 30-30v-210c10.6-1.76 19.6-9.12 23.3-19.5 4.28-11.9 0.6-25.2-9.18-33.3zm-365-106h42v19l-42 34.5zm320 129v240h-103v-76.5c0-21.7-14.7-39.3-32.8-39.3h-67.5c-18.1 0-32.8 17.6-32.8 39.3v76.5h-103v-240h-25.1l195-160 195 160z" fill="#800080" stroke="#800080"/>
   </g>
  </g>
 </g>
</svg>
