<?xml version="1.0" encoding="UTF-8" standalone="no"?>
<!-- Created with Inkscape (http://www.inkscape.org/) -->

<svg
   width="210mm"
   height="297mm"
   viewBox="0 0 210 297"
   version="1.1"
   id="svg5"
   inkscape:version="1.1.2 (b8e25be833, 2022-02-05)"
   sodipodi:docname="logo1.inkscape.svg"
   xmlns:inkscape="http://www.inkscape.org/namespaces/inkscape"
   xmlns:sodipodi="http://sodipodi.sourceforge.net/DTD/sodipodi-0.dtd"
   xmlns="http://www.w3.org/2000/svg"
   xmlns:svg="http://www.w3.org/2000/svg">
  <sodipodi:namedview
     id="namedview7"
     pagecolor="#ffffff"
     bordercolor="#666666"
     borderopacity="1.0"
     inkscape:pageshadow="2"
     inkscape:pageopacity="0.0"
     inkscape:pagecheckerboard="0"
     inkscape:document-units="mm"
     showgrid="false"
     inkscape:zoom="0.38796647"
     inkscape:cx="79.903812"
     inkscape:cy="340.23559"
     inkscape:window-width="1543"
     inkscape:window-height="1041"
     inkscape:window-x="152"
     inkscape:window-y="19"
     inkscape:window-maximized="0"
     inkscape:current-layer="g29887"
     inkscape:snap-others="false"
     inkscape:snap-nodes="false" />
  <defs
     id="defs2">
	
</defs>
  <g
     inkscape:label="Layer 1"
     inkscape:groupmode="layer"
     id="layer1"
     style="display:inline">
    <g
       id="g29240"
       transform="matrix(3.0533729,0,0,3.0533729,20.231706,59.960923)"
       inkscape:export-filename="C:\Users\bootz\Desktop\logo1.webp"
       inkscape:export-xdpi="89.086548"
       inkscape:export-ydpi="89.086548">
      <g
         id="g29162">
	<path
   style="fill:#d0e8f9"
   d="m 57.972,20.866 c 0.353,-1.214 0.239,-2.519 -0.661,-3.407 -5.149,-5.082 -11.353,-1.481 -11.353,3.542 0,0.553 -0.447,1 -1,1 -0.553,0 -1,-0.447 -1,-1 0,-4.064 3.049,-7.423 6.978,-7.927 -0.226,-5.039 -4.384,-9.073 -9.478,-9.073 -5.111,0 -9.281,4.06 -9.481,9.123 0.829,0.196 1.632,0.52 2.378,0.981 1.816,1.125 3.086,2.89 3.576,4.97 0.126,0.538 -0.207,1.076 -0.744,1.203 -0.564,0.127 -1.127,-0.239 -1.218,-0.822 -0.25,-1.6 -1.017,-3.113 -2.487,-3.791 -5.696,-2.628 -10.262,2.01 -9.178,6.617 0.126,0.537 -0.207,1.075 -0.745,1.202 -0.076,0.018 -0.153,0.026 -0.229,0.026 -0.453,0 -0.864,-0.311 -0.973,-0.771 -0.294,-1.251 -0.268,-2.502 0.012,-3.674 -2.058,-0.301 -4.137,0.476 -5.493,2.122 -1.258,1.529 -1.625,3.498 -1.175,5.285 10e-4,0.012 0.007,0.022 0.008,0.034 0.306,1.186 0.97,2.29 1.985,3.127 0.426,0.352 0.487,0.981 0.137,1.408 -0.198,0.24 -0.484,0.364 -0.773,0.364 -0.224,0 -0.448,-0.074 -0.635,-0.228 -1.217,-1.002 -2.088,-2.311 -2.546,-3.781 -4.043,-1.054 -8.294,0.647 -10.49,4.262 -2.035,3.349 -1.868,7.615 0.772,11.06 0.651,0.85 1.574,1.417 2.458,2.02 0.436,0.298 0.568,0.888 0.29,1.345 -0.188,0.31 -0.518,0.48 -0.855,0.48 -0.133,0 -0.265,-0.036 -0.392,-0.091 0.659,0.391 1.369,0.701 2.103,0.956 C 11.635,37.252 21.486,30 33.004,30 c 6.343,0 12.18,2.201 16.791,5.877 4.051,3.23 10.169,0.51 10.208,-4.671 0,-0.044 0,-0.087 0,-0.131 v -6.131 c 0,-1.535 -0.958,-2.731 -1.992,-3.865 -0.049,-0.052 -0.066,-0.122 -0.039,-0.213 z"
   id="path29160" />

</g>
      <path
         style="fill:#e64c3c"
         d="m 11.029,58.002 c -0.015,-0.332 -0.025,-0.665 -0.025,-1 0,-12.131 9.869,-22 22,-22 12.131,0 22,9.869 22,22 0,0.335 -0.01,0.668 -0.025,1 h 4 c 0.013,-0.332 0.025,-0.665 0.025,-1 0,-14.359 -11.641,-26 -26,-26 -14.359,0 -26,11.641 -26,26 0,0.335 0.013,0.668 0.025,1 z"
         id="path29164" />
      <path
         style="fill:#f0c419"
         d="m 15.054,58.002 c -0.018,-0.333 -0.051,-0.662 -0.051,-1 0,-9.925 8.075,-18 18,-18 9.925,0 18,8.075 18,18 0,0.338 -0.032,0.667 -0.051,1 h 4.025 c 0.015,-0.332 0.025,-0.665 0.025,-1 0,-12.131 -9.869,-22 -22,-22 -12.131,0 -22,9.869 -22,22 0,0.335 0.01,0.668 0.025,1 z"
         id="path29166" />
      <path
         style="fill:#71c285"
         d="m 19.054,58.002 c -0.024,-0.332 -0.051,-0.662 -0.051,-1 0,-7.72 6.28,-14 14,-14 7.72,0 14,6.28 14,14 0,0.338 -0.027,0.668 -0.051,1 h 4 c 0.018,-0.333 0.051,-0.662 0.051,-1 0,-9.925 -8.075,-18 -18,-18 -9.925,0 -18,8.075 -18,18 0,0.338 0.032,0.667 0.051,1 z"
         id="path29168" />
      <path
         style="fill:#0096e6"
         d="m 23.054,58.002 c -0.033,-0.329 -0.051,-0.662 -0.051,-1 0,-5.514 4.486,-10 10,-10 5.514,0 10,4.486 10,10 0,0.338 -0.018,0.671 -0.051,1 h 4 c 0.024,-0.332 0.051,-0.662 0.051,-1 0,-7.72 -6.28,-14 -14,-14 -7.72,0 -14,6.28 -14,14 0,0.338 0.027,0.668 0.051,1 z"
         id="path29170" />
      <path
         style="fill:#546a79"
         d="m 27.094,58.002 c -0.055,-0.326 -0.09,-0.659 -0.09,-1 0,-3.309 2.691,-6 6,-6 3.309,0 6,2.691 6,6 0,0.341 -0.035,0.674 -0.09,1 h 4.04 c 0.033,-0.329 0.051,-0.662 0.051,-1 0,-5.514 -4.486,-10 -10,-10 -5.514,0 -10,4.486 -10,10 0,0.338 0.018,0.671 0.051,1 z"
         id="path29172" />
      <g
         id="g29178">
	<path
   style="fill:#abcadd"
   d="M 52.936,13.068 C 52.705,6.929 47.652,2.002 41.458,2.002 c -6.142,0 -11.16,4.844 -11.47,10.91 -0.558,0.012 -1.119,0.078 -1.676,0.209 -2.336,0.55 -4.185,2.082 -5.229,4.052 -2.882,-0.585 -5.848,0.433 -7.75,2.742 -1.251,1.52 -1.879,3.408 -1.81,5.359 -4.63,-0.834 -9.34,1.224 -11.844,5.344 -1.596,2.625 -2.073,5.714 -1.345,8.698 0.728,2.984 2.575,5.506 5.2,7.102 0.162,0.099 0.342,0.146 0.519,0.146 0.338,0 0.667,-0.171 0.855,-0.48 C 7.195,45.611 7.045,44.997 6.573,44.71 4.404,43.392 2.879,41.309 2.277,38.843 1.675,36.378 2.07,33.826 3.387,31.658 c 2.196,-3.614 6.447,-5.315 10.49,-4.262 0.458,1.471 1.33,2.779 2.546,3.781 0.187,0.153 0.411,0.228 0.635,0.228 0.289,0 0.575,-0.124 0.773,-0.364 0.351,-0.427 0.289,-1.057 -0.137,-1.408 -1.016,-0.836 -1.679,-1.941 -1.985,-3.127 -10e-4,-0.012 -0.007,-0.022 -0.008,-0.034 -0.45,-1.787 -0.083,-3.756 1.175,-5.285 1.356,-1.646 3.435,-2.423 5.493,-2.122 -0.28,1.173 -0.307,2.423 -0.012,3.674 0.108,0.461 0.52,0.771 0.973,0.771 0.076,0 0.153,-0.009 0.229,-0.026 0.538,-0.127 0.871,-0.665 0.745,-1.202 -0.758,-3.221 1.246,-6.457 4.467,-7.215 3.215,-0.759 6.456,1.245 7.214,4.467 0.127,0.537 0.665,0.865 1.203,0.744 0.537,-0.127 0.87,-0.665 0.744,-1.203 -0.49,-2.08 -1.76,-3.845 -3.576,-4.97 -0.746,-0.462 -1.549,-0.785 -2.378,-0.981 0.2,-5.063 4.37,-9.123 9.481,-9.123 5.094,0 9.253,4.033 9.478,9.073 -3.929,0.504 -6.978,3.863 -6.978,7.927 0,0.553 0.447,1 1,1 0.553,0 1,-0.447 1,-1 0,-3.309 2.691,-6 6,-6 3.309,0 6.046,2.691 6.046,6 0,0.028 0,1.327 0,3 0,0.552 0.448,1 1,1 0.552,0 1,-0.448 1,-1 v -3 c -0.002,-4.079 -3.119,-7.449 -7.069,-7.933 z"
   id="path29174" />

	<path
   style="fill:#abcadd"
   d="m 59.003,30.002 c -0.552,0 -1,0.448 -1,1 0,1.442 0,0.5 0,0.5 0,2.481 -2.019,4.5 -4.5,4.5 -2.481,0 -4.5,-2.019 -4.5,-4.5 0,-0.553 -0.448,-1 -1,-1 -0.552,0 -1,0.447 -1,1 0,3.584 2.916,6.5 6.5,6.5 3.415,0 6.243,-2.649 6.5,-6 v -1 c 0,-0.553 -0.447,-1 -1,-1 z"
   id="path29176" />

</g>
      <g
         id="g29180">
</g>
      <g
         id="g29182">
</g>
      <g
         id="g29184">
</g>
      <g
         id="g29186">
</g>
      <g
         id="g29188">
</g>
      <g
         id="g29190">
</g>
      <g
         id="g29192">
</g>
      <g
         id="g29194">
</g>
      <g
         id="g29196">
</g>
      <g
         id="g29198">
</g>
      <g
         id="g29200">
</g>
      <g
         id="g29202">
</g>
      <g
         id="g29204">
</g>
      <g
         id="g29206">
</g>
      <g
         id="g29208">
</g>
    </g>
  </g>
  <g
     inkscape:groupmode="layer"
     id="layer2"
     inkscape:label="House1"
     style="display:none">
    <g
       id="g29295"
       transform="matrix(1.3260034,0,0,1.3260034,82.142994,159.67047)">
      <path
         d="M 57.863,26.632 29.182,0 0.502,26.632 c -0.404,0.376 -0.428,1.009 -0.052,1.414 0.374,0.404 1.009,0.427 1.413,0.052 l 4.319,-4.011 v 3.278 31 h 46 v -31 -3.278 l 4.319,4.011 c 0.192,0.179 0.437,0.267 0.681,0.267 0.269,0 0.536,-0.107 0.732,-0.319 0.377,-0.405 0.353,-1.038 -0.051,-1.414 z M 26.182,52.365 h -12 v -12 h 12 z m 0,-18 h -12 v -12 h 12 z m 18,18 h -12 v -12 h 12 z m 0,-18 h -12 v -12 h 12 z"
         id="path29242" />
      <g
         id="g29244" />
      <g
         id="g29246" />
      <g
         id="g29248" />
      <g
         id="g29250" />
      <g
         id="g29252" />
      <g
         id="g29254" />
      <g
         id="g29256" />
      <g
         id="g29258" />
      <g
         id="g29260" />
      <g
         id="g29262" />
      <g
         id="g29264" />
      <g
         id="g29266" />
      <g
         id="g29268" />
      <g
         id="g29270" />
      <g
         id="g29272" />
    </g>
  </g>
  <g
     inkscape:groupmode="layer"
     id="layer3"
     inkscape:label="House2"
     style="display:none">
    <g
       id="g29362"
       transform="matrix(0.21282604,0,0,0.21282604,76.700042,155.06589)">
      <g
         id="g29305">
        <path
           style="fill:none"
           d="m 78.279,144.455 v 216.821 h 80.21 V 232.593 c 0,-6.627 5.373,-12 12,-12 h 73.814 c 6.627,0 12,5.373 12,12 v 128.683 h 80.209 V 144.456 L 207.395,56.083 Z"
           id="path29297" />
        <rect
           x="182.48801"
           y="244.593"
           style="fill:#73d0f4"
           width="49.813999"
           height="116.683"
           id="rect29299" />
        <polygon
           style="fill:#73d0f4"
           points="302.067,57.883 302.067,91.796 336.512,115.373 336.512,57.883 "
           id="polygon29301" />
        <path
           style="fill:#3d6889"
           d="M 409.566,165.374 360.512,131.8 V 45.883 c 0,-6.627 -5.373,-12 -12,-12 h -58.445 c -6.628,0 -12,5.373 -12,12 V 75.37 c 0,0 -62.987,-43.156 -63.812,-43.731 -3.974,-2.769 -9.405,-2.899 -13.638,0 L 5.223,165.374 c -5.469,3.743 -6.868,11.211 -3.125,16.68 2.325,3.397 6.086,5.224 9.914,5.224 2.335,0 4.695,-0.68 6.767,-2.099 l 35.499,-24.297 v 212.394 c 0,6.627 5.373,12 12,12 h 282.233 c 6.627,0 12,-5.373 12,-12 V 160.881 l 35.499,24.297 c 2.073,1.419 4.432,2.099 6.767,2.099 3.827,0 7.589,-1.827 9.914,-5.224 3.743,-5.468 2.344,-12.936 -3.125,-16.679 z M 232.303,361.276 H 182.489 V 244.593 h 49.814 z m 104.209,0 H 256.303 V 232.593 c 0,-6.627 -5.373,-12 -12,-12 h -73.814 c -6.627,0 -12,5.373 -12,12 V 361.276 H 78.279 V 144.455 l 129.117,-88.372 129.117,88.373 v 216.82 z m 0,-245.903 -34.445,-23.576 V 57.883 h 34.445 z"
           id="path29303" />
      </g>
      <g
         id="g29307" />
      <g
         id="g29309" />
      <g
         id="g29311" />
      <g
         id="g29313" />
      <g
         id="g29315" />
      <g
         id="g29317" />
      <g
         id="g29319" />
      <g
         id="g29321" />
      <g
         id="g29323" />
      <g
         id="g29325" />
      <g
         id="g29327" />
      <g
         id="g29329" />
      <g
         id="g29331" />
      <g
         id="g29333" />
      <g
         id="g29335" />
    </g>
  </g>
  <g
     inkscape:groupmode="layer"
     id="layer4"
     inkscape:label="House3"
     style="display:inline">
    <g
       id="g29887"
       transform="matrix(0.16141314,0,0,0.16141314,83.677602,162.73998)">
      <g
         id="g29834">
</g>
      <g
         id="g29836">
</g>
      <g
         id="g29838">
</g>
      <g
         id="g29840">
</g>
      <g
         id="g29842">
</g>
      <g
         id="g29844">
</g>
      <g
         id="g29846">
</g>
      <g
         id="g29848">
</g>
      <g
         id="g29850">
</g>
      <g
         id="g29852">
</g>
      <g
         id="g29854">
</g>
      <g
         id="g29856">
</g>
      <g
         id="g29858">
</g>
      <g
         id="g29860">
</g>
      <g
         id="g29862">
</g>
      <path
         style="fill:#ffffff;fill-rule:evenodd;stroke:#000000;stroke-width:1.68212px;stroke-linecap:butt;stroke-linejoin:miter;stroke-opacity:1"
         d="M 225.24099,18.001501 12.87662,185.304 20.74196,207.71059 H 33.326514 L 39.6188,442.23283 h 132.13783 l 4.7192,-107.5516 99.10338,-1.49377 11.01148,106.05784 135.28397,2.98753 V 206.21681 l 36.1806,-10.4564 z"
         id="path29941"
         inkscape:export-filename="C:\Users\bootz\Desktop\logo1.webp"
         inkscape:export-xdpi="89.086548"
         inkscape:export-ydpi="89.086548" />
      <path
         style="fill:#ffffff;fill-rule:evenodd;stroke:none;stroke-width:1.63917px;stroke-linecap:butt;stroke-linejoin:miter;stroke-opacity:1"
         d="M 53.708422,46.383163 58.189744,140.49083 135.86591,85.221244 128.39704,43.395631 Z"
         id="path30259"
         inkscape:export-filename="C:\Users\bootz\Desktop\logo1.webp"
         inkscape:export-xdpi="89.086548"
         inkscape:export-ydpi="89.086548" />
      <g
         id="g29830"
         transform="matrix(1.0530851,0,0,1,-12.221543,0)"
         style="stroke:#800080;fill:#660080"
         inkscape:export-filename="C:\Users\bootz\Desktop\logo1.webp"
         inkscape:export-xdpi="89.086548"
         inkscape:export-ydpi="89.086548">
		<path
   d="M 444.396,167.33 249.284,6.831 C 243.747,2.277 236.986,0 230.225,0 223.464,0 216.703,2.277 211.167,6.831 L 151.76,55.699 V 46.34 c 0,-8.284 -6.716,-15 -15,-15 H 64.81 c -8.284,0 -15,6.716 -15,15 v 93.223 L 16.055,167.33 c -9.781,8.046 -13.456,21.369 -9.182,33.291 3.711,10.354 12.723,17.715 23.325,19.473 V 430.45 c 0,16.569 13.432,30 30,30 h 103.443 c 16.568,0 30,-13.431 30,-30 v -76.474 c 0,-5.316 2.297,-8.485 3.368,-9.296 h 66.432 c 1.071,0.811 3.368,3.98 3.368,9.296 v 76.474 c 0,16.569 13.431,30 30,30 h 103.443 c 16.569,0 30,-13.431 30,-30 V 220.095 c 10.603,-1.757 19.614,-9.119 23.325,-19.473 4.275,-11.923 0.6,-25.245 -9.181,-33.292 z M 79.81,61.341 h 41.95 V 80.378 L 79.81,114.886 Z M 400.253,190.499 V 430.451 H 296.809 v -76.474 c 0,-21.703 -14.693,-39.296 -32.818,-39.296 H 196.46 c -18.125,0 -32.818,17.594 -32.818,39.296 v 76.474 H 60.198 V 190.499 H 35.113 L 230.225,30 425.337,190.499 Z"
   id="path29828"
   style="stroke:#800080;fill:#660080" />

	</g>
    </g>
  </g>
</svg>
